<svg width="21" height="21" viewBox="0 0 21 21" fill="none" xmlns="http://www.w3.org/2000/svg">
<rect width="21" height="21" rx="10.5" fill="#27AE60"/>
<path d="M16.875 10.5C16.9323 10.238 17.0386 9.98928 17.1884 9.76687C17.3586 9.54702 17.4809 9.29407 17.5477 9.02421C17.6145 8.75435 17.6242 8.47352 17.5762 8.19969C17.452 7.94366 17.2752 7.71669 17.0574 7.53361C16.8395 7.35054 16.5855 7.21545 16.3119 7.13719C16.0756 7.05614 15.8547 6.9358 15.6584 6.78125C15.5579 6.54196 15.5021 6.28628 15.4937 6.02688C15.5027 5.74417 15.4519 5.46275 15.3448 5.20096C15.2377 4.93918 15.0767 4.70289 14.8722 4.5075C14.6248 4.37452 14.352 4.29536 14.0719 4.27522C13.7917 4.25507 13.5104 4.2944 13.2466 4.39062C12.995 4.46403 12.7315 4.48749 12.4709 4.45969C12.2642 4.33009 12.0839 4.16244 11.9397 3.96563C11.7785 3.72069 11.5665 3.51327 11.3181 3.35745C11.0697 3.20163 10.7907 3.10104 10.5 3.0625C10.2153 3.10079 9.94179 3.19864 9.69739 3.34967C9.453 3.5007 9.24316 3.70153 9.08156 3.93906C8.93732 4.13588 8.75705 4.30353 8.55031 4.43313C8.28973 4.46093 8.02624 4.43747 7.77468 4.36406C7.51079 4.26784 7.22953 4.22851 6.94937 4.24865C6.66921 4.2688 6.39647 4.34796 6.14906 4.48094C5.9407 4.67444 5.77569 4.90988 5.66489 5.17176C5.55409 5.43365 5.50002 5.71603 5.50624 6.00031C5.50116 6.26869 5.44528 6.53368 5.34156 6.78125C5.14725 6.94522 4.92622 7.0746 4.68812 7.16375C4.41452 7.24202 4.1605 7.3771 3.94263 7.56018C3.72477 7.74326 3.54796 7.97022 3.42374 8.22625C3.37577 8.50008 3.38548 8.78091 3.45226 9.05077C3.51904 9.32063 3.64142 9.57358 3.81156 9.79344C3.95835 10.0078 4.06459 10.2473 4.12499 10.5C4.06771 10.762 3.96136 11.0107 3.81156 11.2331C3.64142 11.453 3.51904 11.7059 3.45226 11.9758C3.38548 12.2457 3.37577 12.5265 3.42374 12.8003C3.54796 13.0563 3.72477 13.2833 3.94263 13.4664C4.1605 13.6495 4.41452 13.7845 4.68812 13.8628C4.92622 13.952 5.14725 14.0813 5.34156 14.2453C5.44206 14.4846 5.49788 14.7403 5.50624 14.9997C5.49731 15.2824 5.54805 15.5638 5.65515 15.8256C5.76224 16.0874 5.92329 16.3237 6.12781 16.5191C6.37522 16.652 6.64796 16.7312 6.92812 16.7513C7.20828 16.7715 7.48954 16.7322 7.75343 16.6359C8.00499 16.5625 8.26848 16.5391 8.52906 16.5669C8.7358 16.6965 8.91607 16.8641 9.06031 17.0609C9.22422 17.3009 9.43741 17.5033 9.68566 17.6544C9.9339 17.8056 10.2115 17.9021 10.5 17.9375C10.7847 17.8992 11.0582 17.8014 11.3026 17.6503C11.547 17.4993 11.7568 17.2985 11.9184 17.0609C12.0627 16.8641 12.2429 16.6965 12.4497 16.5669C12.7103 16.5391 12.9737 16.5625 13.2253 16.6359C13.4892 16.7322 13.7705 16.7715 14.0506 16.7513C14.3308 16.7312 14.6035 16.652 14.8509 16.5191C15.0554 16.3237 15.2165 16.0874 15.3236 15.8256C15.4307 15.5638 15.4814 15.2824 15.4725 14.9997C15.4809 14.7403 15.5367 14.4846 15.6372 14.2453C15.8315 14.0813 16.0525 13.952 16.2906 13.8628C16.5642 13.7845 16.8182 13.6495 17.0361 13.4664C17.254 13.2833 17.4308 13.0563 17.555 12.8003C17.603 12.5265 17.5933 12.2457 17.5265 11.9758C17.4597 11.7059 17.3373 11.453 17.1672 11.2331C17.0249 11.0091 16.9258 10.7605 16.875 10.5ZM16.2641 11.7537C16.3809 11.9663 16.6041 12.3541 16.5669 12.4709C16.5297 12.5878 16.1312 12.7791 15.8762 12.8959C15.4665 13.0453 15.1011 13.2956 14.8137 13.6237C14.586 14.003 14.4614 14.4352 14.4525 14.8775C14.4206 15.1431 14.3728 15.5787 14.2612 15.6584C14.1497 15.7381 13.73 15.6584 13.475 15.5947C13.0464 15.47 12.5933 15.4554 12.1575 15.5522C11.753 15.723 11.3998 15.9957 11.1322 16.3438C10.9409 16.5562 10.6487 16.875 10.5 16.875C10.3512 16.875 10.0591 16.5562 9.86781 16.3438C9.60463 15.9979 9.25708 15.7253 8.85843 15.5522C8.7033 15.5059 8.5422 15.4826 8.38031 15.4831C8.09762 15.4938 7.81658 15.5311 7.54093 15.5947C7.28593 15.6478 6.85562 15.7328 6.75468 15.6584C6.65374 15.5841 6.59531 15.1272 6.56343 14.8775C6.55451 14.4352 6.42997 14.003 6.20218 13.6237C5.91487 13.2956 5.54943 13.0453 5.13968 12.8959C4.88468 12.7791 4.49687 12.6037 4.44906 12.4709C4.40124 12.3381 4.63499 11.9663 4.75187 11.7537C5.00083 11.3794 5.15072 10.948 5.18749 10.5C5.14595 10.0505 4.99054 9.61901 4.73593 9.24625C4.61906 9.03375 4.39593 8.64594 4.43312 8.52906C4.47031 8.41219 4.86874 8.22094 5.12374 8.10406C5.53349 7.95469 5.89893 7.70436 6.18624 7.37625C6.41403 6.99703 6.53858 6.56478 6.54749 6.1225C6.57937 5.85688 6.62718 5.42125 6.73874 5.34156C6.85031 5.26187 7.26999 5.34156 7.52499 5.40531C7.95361 5.52995 8.40673 5.54457 8.84249 5.44781C9.24694 5.27703 9.60021 5.0043 9.86781 4.65625C10.0591 4.44375 10.3512 4.125 10.5 4.125C10.6487 4.125 10.9409 4.44375 11.1322 4.65625C11.3954 5.00214 11.7429 5.27469 12.1416 5.44781C12.5773 5.54457 13.0304 5.52995 13.4591 5.40531C13.7131 5.32569 13.9817 5.30391 14.2453 5.34156C14.3569 5.42125 14.4047 5.87281 14.4366 6.1225C14.4455 6.56478 14.57 6.99703 14.7978 7.37625C15.0851 7.70436 15.4506 7.95469 15.8603 8.10406C16.1153 8.22094 16.5031 8.39625 16.5509 8.52906C16.5987 8.66187 16.365 9.06031 16.2481 9.24625C15.9992 9.62057 15.8493 10.052 15.8125 10.5C15.854 10.9495 16.0094 11.381 16.2641 11.7537Z" fill="white"/>
<path d="M12.5134 8.52907L9.70312 11.3447L8.75218 10.3884C8.70265 10.3389 8.64384 10.2996 8.57913 10.2728C8.51441 10.246 8.44504 10.2322 8.37499 10.2322C8.30494 10.2322 8.23558 10.246 8.17086 10.2728C8.10614 10.2996 8.04734 10.3389 7.99781 10.3884C7.94827 10.438 7.90898 10.4968 7.88217 10.5615C7.85537 10.6262 7.84157 10.6956 7.84157 10.7656C7.84157 10.8357 7.85537 10.905 7.88217 10.9698C7.90898 11.0345 7.94827 11.0933 7.99781 11.1428L9.32593 12.4709C9.37532 12.5207 9.43407 12.5603 9.49881 12.5872C9.56355 12.6142 9.63299 12.6281 9.70312 12.6281C9.77325 12.6281 9.84269 12.6142 9.90742 12.5872C9.97216 12.5603 10.0309 12.5207 10.0803 12.4709L13.2678 9.28344C13.3173 9.23391 13.3566 9.17511 13.3834 9.11039C13.4102 9.04567 13.424 8.97631 13.424 8.90626C13.424 8.83621 13.4102 8.76684 13.3834 8.70212C13.3566 8.63741 13.3173 8.5786 13.2678 8.52907C13.2183 8.47954 13.1595 8.44024 13.0948 8.41344C13.03 8.38663 12.9607 8.37283 12.8906 8.37283C12.8206 8.37283 12.7512 8.38663 12.6865 8.41344C12.6218 8.44024 12.563 8.47954 12.5134 8.52907Z" fill="white"/>
</svg>
