<svg width="16" height="16" viewBox="0 0 16 16" fill="none" xmlns="http://www.w3.org/2000/svg">
<path fill-rule="evenodd" clip-rule="evenodd" d="M14.087 9.43119C14.8601 8.6178 14.8601 7.38203 14.087 6.56865C12.7832 5.19681 10.5438 3.33325 8.00016 3.33325C5.45649 3.33325 3.21716 5.19681 1.9133 6.56865C1.14023 7.38203 1.14023 8.6178 1.9133 9.43119C3.21716 10.803 5.45649 12.6666 8.00016 12.6666C10.5438 12.6666 12.7832 10.803 14.087 9.43119ZM8.00016 9.99992C9.10473 9.99992 10.0002 9.10449 10.0002 7.99992C10.0002 6.89535 9.10473 5.99992 8.00016 5.99992C6.89559 5.99992 6.00016 6.89535 6.00016 7.99992C6.00016 9.10449 6.89559 9.99992 8.00016 9.99992Z" fill="url(#paint0_linear_1077_37053)"/>
<defs>
<linearGradient id="paint0_linear_1077_37053" x1="1.3335" y1="7.99992" x2="14.6668" y2="7.99992" gradientUnits="userSpaceOnUse">
<stop stop-color="#FF5F6D"/>
<stop offset="1" stop-color="#FFC371"/>
</linearGradient>
</defs>
</svg>
