<svg width="21" height="20" viewBox="0 0 21 20" fill="none" xmlns="http://www.w3.org/2000/svg">
<path fill-rule="evenodd" clip-rule="evenodd" d="M1.5 3.75H7.85352C8.17998 4.90425 9.24122 5.75 10.5 5.75C11.7588 5.75 12.82 4.90425 13.1465 3.75H19.5C19.9142 3.75 20.25 3.41421 20.25 3C20.25 2.58579 19.9142 2.25 19.5 2.25H13.1465C12.82 1.09575 11.7588 0.25 10.5 0.25C9.24122 0.25 8.17998 1.09575 7.85352 2.25H1.5C1.08579 2.25 0.75 2.58579 0.75 3C0.75 3.41421 1.08579 3.75 1.5 3.75ZM15.5 7.25C13.9812 7.25 12.75 8.48122 12.75 10C12.75 11.5188 13.9812 12.75 15.5 12.75C16.7588 12.75 17.82 11.9043 18.1465 10.75H19.5C19.9142 10.75 20.25 10.4142 20.25 10C20.25 9.58579 19.9142 9.25 19.5 9.25H18.1465C17.82 8.09575 16.7588 7.25 15.5 7.25ZM0.75 10C0.75 9.58579 1.08579 9.25 1.5 9.25H10.5C10.9142 9.25 11.25 9.58579 11.25 10C11.25 10.4142 10.9142 10.75 10.5 10.75H1.5C1.08579 10.75 0.75 10.4142 0.75 10ZM2.85352 17.75H1.5C1.08579 17.75 0.75 17.4142 0.75 17C0.75 16.5858 1.08579 16.25 1.5 16.25H2.85352C3.17998 15.0957 4.24122 14.25 5.5 14.25C7.01878 14.25 8.25 15.4812 8.25 17C8.25 18.5188 7.01878 19.75 5.5 19.75C4.24122 19.75 3.17998 18.9043 2.85352 17.75ZM9.75 17C9.75 16.5858 10.0858 16.25 10.5 16.25H19.5C19.9142 16.25 20.25 16.5858 20.25 17C20.25 17.4142 19.9142 17.75 19.5 17.75H10.5C10.0858 17.75 9.75 17.4142 9.75 17Z" fill="#2B69FA"/>
</svg>
