<svg width="18" height="18" viewBox="0 0 18 18" fill="none" xmlns="http://www.w3.org/2000/svg">
<g id="Page-1">
<g id="037---Waypoint-Flag">
<path id="Shape" d="M4.48892 17.3741L4.80583 17.2856C5.11065 17.2004 5.2887 16.8842 5.20352 16.5794L1.58028 3.61318C1.52915 3.43019 1.40742 3.27502 1.24188 3.18178C1.07633 3.08855 0.880532 3.0649 0.697549 3.11603L0.656622 3.12746C0.275558 3.23393 0.052953 3.62915 0.159418 4.01022L3.78275 16.9764C3.86793 17.2812 4.18409 17.4593 4.48892 17.3741Z" fill="url(#paint0_linear_2001_313)"/>
<path id="Shape_2" d="M17.2491 8.31299C16.1001 7.74007 15.0371 7.00879 14.0913 6.14052C14.0118 6.06775 13.9807 5.95603 14.0112 5.85264C14.4798 4.0797 14.8279 2.27706 15.0529 0.457086C15.0885 0.154365 14.9253 0.0653289 14.7532 0.273079C11.3757 4.31233 5.53203 -0.465917 2.05371 3.20532C2.09547 3.2835 2.12832 3.36613 2.15165 3.45165L4.50219 11.8685C7.98645 8.24176 13.8094 12.9903 17.1809 8.95998C17.353 8.75223 17.3856 8.37235 17.2491 8.31299Z" fill="url(#paint1_linear_2001_313)"/>
</g>
</g>
<defs>
<linearGradient id="paint0_linear_2001_313" x1="0.132812" y1="17.3954" x2="9.17165" y2="14.1781" gradientUnits="userSpaceOnUse">
<stop stop-color="#BC4E9C"/>
<stop offset="1" stop-color="#F80759"/>
</linearGradient>
<linearGradient id="paint1_linear_2001_313" x1="2.05371" y1="11.8685" x2="13.3589" y2="-2.88557" gradientUnits="userSpaceOnUse">
<stop stop-color="#BC4E9C"/>
<stop offset="1" stop-color="#F80759"/>
</linearGradient>
</defs>
</svg>
