<svg width="18" height="18" viewBox="0 0 18 18" fill="none" xmlns="http://www.w3.org/2000/svg">
   <path d="M6.16704 0.111328H2.26015C1.07489 0.111328 0.110352 1.07587 0.110352 2.26112V6.16754C0.110352 7.35279 1.07489 8.31733 2.26015 8.31733H6.16656C7.35181 8.31733 8.31636 7.35279 8.31636 6.16754V2.26112C8.31683 1.07587 7.35229 0.111328 6.16704 0.111328ZM6.88364 6.16802C6.88364 6.5631 6.56212 6.88461 6.16704 6.88461H2.26015C1.86506 6.88461 1.54355 6.5631 1.54355 6.16802V2.2616C1.54355 1.86652 1.86506 1.545 2.26015 1.545H6.16656C6.56165 1.545 6.88316 1.86652 6.88316 2.2616L6.88364 6.16802ZM15.8325 0.111328H11.9256C10.7404 0.111328 9.77583 1.07587 9.77583 2.26112V6.16754C9.77583 7.35279 10.7404 8.31733 11.9256 8.31733H15.8325C17.0178 8.31733 17.9823 7.35279 17.9823 6.16754V2.26112C17.9823 1.07587 17.0182 0.111328 15.8325 0.111328ZM16.5491 6.16802C16.5491 6.5631 16.2276 6.88461 15.8325 6.88461H11.9256C11.5305 6.88461 11.209 6.5631 11.209 6.16802V2.2616C11.209 1.86652 11.5305 1.545 11.9256 1.545H15.8325C16.2276 1.545 16.5491 1.86652 16.5491 2.2616V6.16802ZM6.16704 9.31675H2.26015C1.07489 9.31675 0.110352 10.2813 0.110352 11.4665V15.373C0.110352 16.5582 1.07489 17.5228 2.26015 17.5228H6.16656C7.35181 17.5228 8.31636 16.5582 8.31636 15.373V11.4665C8.31683 10.2808 7.35229 9.31675 6.16704 9.31675ZM6.88364 15.373C6.88364 15.768 6.56212 16.0896 6.16704 16.0896H2.26015C1.86506 16.0896 1.54355 15.768 1.54355 15.373V11.4665C1.54355 11.0715 1.86506 10.7499 2.26015 10.7499H6.16656C6.56165 10.7499 6.88316 11.0715 6.88316 11.4665L6.88364 15.373ZM15.8325 9.31675H11.9256C10.7404 9.31675 9.77583 10.2813 9.77583 11.4665V15.373C9.77583 16.5582 10.7404 17.5228 11.9256 17.5228H14.8446C15.2401 17.5228 15.5612 17.2017 15.5612 16.8062C15.5612 16.4106 15.2401 16.0896 14.8446 16.0896H11.9256C11.5305 16.0896 11.209 15.768 11.209 15.373V11.4665C11.209 11.0715 11.5305 10.7499 11.9256 10.7499H15.8325C16.2276 10.7499 16.5491 11.0715 16.5491 11.4665V14.7409C16.5491 15.1365 16.8701 15.4575 17.2657 15.4575C17.6613 15.4575 17.9823 15.1365 17.9823 14.7409V11.4665C17.9823 10.2808 17.0182 9.31675 15.8325 9.31675Z"></path>
</svg>