<svg width="25" height="17" viewBox="0 0 25 17" fill="none" xmlns="http://www.w3.org/2000/svg">
                                                <path d="M21.5077 0.378418H6.49271C5.66346 0.378418 4.99121 1.05067 4.99121 1.87992C4.99121 2.70917 5.66346 3.38142 6.49271 3.38142H21.5077C22.337 3.38142 23.0092 2.70917 23.0092 1.87992C23.0092 1.05067 22.337 0.378418 21.5077 0.378418Z"></path>
                                                <path d="M3.48895 1.87994C3.48726 1.48237 3.32796 1.1017 3.04601 0.821386C2.46038 0.239226 1.51453 0.239226 0.928893 0.821386C0.646892 1.1017 0.487592 1.48237 0.48595 1.87994C0.474735 1.97721 0.474735 2.07547 0.48595 2.17274C0.502936 2.27057 0.530619 2.36624 0.568532 2.45802C0.608838 2.54694 0.656558 2.63234 0.711175 2.71328C0.765088 2.79745 0.828011 2.87549 0.898863 2.94601C0.967181 3.01405 1.04268 3.07448 1.12409 3.12619C1.20315 3.18376 1.28888 3.23167 1.37934 3.26883C1.47886 3.32045 1.58495 3.35836 1.69466 3.38145C1.79193 3.39233 1.89018 3.39233 1.98745 3.38145C2.38394 3.38177 2.76448 3.22524 3.04601 2.94601C3.11686 2.87549 3.17978 2.79745 3.2337 2.71328C3.28831 2.63234 3.33603 2.54694 3.37634 2.45802C3.42425 2.36737 3.46202 2.2717 3.48895 2.17274C3.50017 2.07547 3.50017 1.97721 3.48895 1.87994Z"></path>
                                                <path d="M3.48933 8.63678C3.5005 8.53951 3.5005 8.44126 3.48933 8.34399C3.46338 8.24709 3.42556 8.15381 3.37672 8.06621C3.33805 7.9741 3.29024 7.88608 3.23408 7.80345C3.18204 7.72021 3.11888 7.64443 3.04639 7.57822C2.46076 6.99606 1.5149 6.99606 0.929271 7.57822C0.64727 7.85853 0.48797 8.23921 0.486328 8.63678C0.489237 8.83465 0.527385 9.03036 0.598941 9.21486C0.636572 9.30368 0.681805 9.38908 0.734076 9.47011C0.79118 9.55171 0.856589 9.62721 0.929271 9.69534C0.995619 9.76769 1.07135 9.83085 1.1545 9.88303C1.23356 9.94065 1.31924 9.98855 1.40975 10.0257C1.5013 10.0642 1.59706 10.0919 1.69504 10.1083C1.79109 10.1298 1.88939 10.1399 1.98783 10.1383C2.0851 10.1495 2.18335 10.1495 2.28062 10.1383C2.37616 10.1219 2.46944 10.0942 2.5584 10.0557C2.65135 10.0188 2.73957 9.97091 2.82116 9.91306C2.90431 9.86088 2.98004 9.79772 3.04639 9.72537C3.11874 9.65902 3.1819 9.58329 3.23408 9.50014C3.29179 9.42113 3.3397 9.33545 3.37672 9.24489C3.428 9.14523 3.46587 9.03918 3.48933 8.92957C3.50087 8.8323 3.50087 8.73405 3.48933 8.63678Z"></path>
                                                <path d="M3.48942 15.3936C3.50054 15.2963 3.50054 15.1981 3.48942 15.1008C3.46347 15.0015 3.42566 14.9058 3.37681 14.8155C3.3365 14.7266 3.28878 14.6412 3.23417 14.5603C3.18199 14.4771 3.11883 14.4014 3.04648 14.3351C2.46085 13.7529 1.515 13.7529 0.929363 14.3351C0.857009 14.4014 0.793853 14.4771 0.741675 14.5603C0.687058 14.6412 0.639339 14.7266 0.599033 14.8155C0.560088 14.9069 0.532357 15.0028 0.51645 15.1008C0.495288 15.197 0.485247 15.2952 0.48642 15.3936C0.488109 15.7912 0.647409 16.1719 0.929363 16.4522C0.995711 16.5245 1.07144 16.5877 1.15459 16.6399C1.23365 16.6975 1.31933 16.7454 1.40984 16.7825C1.50139 16.821 1.59716 16.8488 1.69513 16.8651C1.79118 16.8866 1.88948 16.8967 1.98792 16.8951C2.08519 16.9063 2.18344 16.9063 2.28071 16.8951C2.37625 16.8787 2.46953 16.851 2.55849 16.8125C2.65144 16.7757 2.73966 16.7277 2.82125 16.6699C2.9044 16.6177 2.98013 16.5546 3.04648 16.4822C3.11883 16.4159 3.18199 16.3401 3.23417 16.257C3.29193 16.178 3.33984 16.0923 3.37681 16.0017C3.42805 15.902 3.46591 15.796 3.48942 15.6864C3.50097 15.5891 3.50097 15.4909 3.48942 15.3936Z"></path>
                                                <path d="M23.0092 7.13477H6.49271C5.66346 7.13477 4.99121 7.80702 4.99121 8.63627C4.99121 9.46552 5.66346 10.1378 6.49271 10.1378H23.0092C23.8385 10.1378 24.5107 9.46552 24.5107 8.63627C24.5107 7.80702 23.8385 7.13477 23.0092 7.13477Z"></path>
                                                <path d="M16.2525 13.8921H6.49271C5.66346 13.8921 4.99121 14.5643 4.99121 15.3936C4.99121 16.2228 5.66346 16.8951 6.49271 16.8951H16.2525C17.0817 16.8951 17.754 16.2228 17.754 15.3936C17.754 14.5643 17.0817 13.8921 16.2525 13.8921Z"></path>
                                            </svg>
