<svg width="22" height="23" viewBox="0 0 22 23" fill="none" xmlns="http://www.w3.org/2000/svg">
<path d="M22 11.0364C22.0038 13.4995 21.1808 15.8927 19.6628 17.8325C18.1447 19.7723 16.0196 21.1465 13.6277 21.7349C11.2359 22.3233 8.71574 22.0919 6.47103 21.0778C4.22633 20.0636 2.38696 18.3254 1.24758 16.1416C0.108203 13.9578 -0.265246 11.4548 0.18706 9.03347C0.639365 6.61219 1.89125 4.41277 3.74217 2.78757C5.59308 1.16236 7.93592 0.205405 10.3954 0.0700101C12.8548 -0.0653851 15.2885 0.628611 17.3067 2.04082L17.1722 1.64971C17.0685 1.33366 17.0946 0.989353 17.2447 0.692525C17.3948 0.395697 17.6567 0.170666 17.9728 0.066937C18.2888 -0.0367921 18.6331 -0.0107226 18.93 0.139411C19.2268 0.289544 19.4518 0.551443 19.5555 0.867492L20.7778 4.53416C20.8384 4.71796 20.8545 4.91353 20.8247 5.10477C20.795 5.29601 20.7202 5.47745 20.6067 5.63416C20.4883 5.80077 20.3301 5.93506 20.1465 6.02474C19.9629 6.11441 19.7597 6.15662 19.5555 6.14749H15.8889C15.5647 6.14749 15.2539 6.01872 15.0246 5.78951C14.7954 5.5603 14.6667 5.24942 14.6667 4.92527C14.6711 4.66657 14.7575 4.41594 14.9134 4.20948C15.0694 4.00302 15.2868 3.85137 15.5344 3.77638C13.9267 2.77151 12.0306 2.32917 10.1442 2.51883C8.25768 2.70849 6.48765 3.51941 5.11208 4.82423C3.7365 6.12904 2.83331 7.85381 2.54438 9.72765C2.25544 11.6015 2.59712 13.5182 3.51576 15.1768C4.43439 16.8353 5.87793 18.1418 7.61965 18.8909C9.36136 19.64 11.3026 19.7894 13.1384 19.3155C14.9742 18.8416 16.6006 17.7713 17.7621 16.2728C18.9236 14.7743 19.5545 12.9324 19.5555 11.0364C19.5555 10.7122 19.6843 10.4013 19.9135 10.1721C20.1427 9.94292 20.4536 9.81415 20.7778 9.81415C21.1019 9.81415 21.4128 9.94292 21.642 10.1721C21.8712 10.4013 22 10.7122 22 11.0364Z"/>
</svg>
