<svg width="20" height="21" viewBox="0 0 20 21" fill="none" xmlns="http://www.w3.org/2000/svg">
<path fill-rule="evenodd" clip-rule="evenodd" d="M18.3337 5.08341C18.3337 6.69425 17.0278 8.00008 15.417 8.00008C14.4993 8.00008 13.6806 7.57626 13.1459 6.91368C13.1272 6.92573 13.1076 6.93689 13.0872 6.94709L7.47248 9.75444C7.45227 9.76455 7.43177 9.77346 7.41106 9.78119C7.46935 10.0112 7.50033 10.252 7.50033 10.5001C7.50033 10.7482 7.46935 10.989 7.41106 11.219C7.43177 11.2267 7.45227 11.2356 7.47248 11.2457L13.0872 14.0531C13.1076 14.0633 13.1272 14.0744 13.1459 14.0865C13.6806 13.4239 14.4993 13.0001 15.417 13.0001C17.0278 13.0001 18.3337 14.3059 18.3337 15.9167C18.3337 17.5276 17.0278 18.8334 15.417 18.8334C13.8062 18.8334 12.5003 17.5276 12.5003 15.9167C12.5003 15.6687 12.5313 15.4278 12.5896 15.1979C12.5689 15.1901 12.5484 15.1812 12.5282 15.1711L6.91346 12.3638C6.89307 12.3536 6.87347 12.3424 6.8547 12.3304C6.32005 12.9929 5.50135 13.4167 4.58366 13.4167C2.97283 13.4167 1.66699 12.1109 1.66699 10.5001C1.66699 8.88925 2.97283 7.58341 4.58366 7.58341C5.50135 7.58341 6.32005 8.00723 6.85471 8.66982C6.87347 8.65777 6.89307 8.64661 6.91346 8.63641L12.5282 5.82906C12.5484 5.81895 12.5689 5.81004 12.5896 5.80231C12.5313 5.57235 12.5003 5.3315 12.5003 5.08341C12.5003 3.47258 13.8062 2.16675 15.417 2.16675C17.0278 2.16675 18.3337 3.47258 18.3337 5.08341Z" fill="url(#paint0_linear_2001_716)"/>
<defs>
<linearGradient id="paint0_linear_2001_716" x1="1.66699" y1="10.5001" x2="18.3337" y2="10.5001" gradientUnits="userSpaceOnUse">
<stop stop-color="#FF5F6D"/>
<stop offset="1" stop-color="#FFC371"/>
</linearGradient>
</defs>
</svg>
